<?xml version="1.0" encoding="utf-8"?>
<!-- Generator: Adobe Illustrator 16.0.0, SVG Export Plug-In . SVG Version: 6.00 Build 0)  -->
<!DOCTYPE svg PUBLIC "-//W3C//DTD SVG 1.1//EN" "http://www.w3.org/Graphics/SVG/1.1/DTD/svg11.dtd">
<svg version="1.1" id="Capa_1" xmlns="http://www.w3.org/2000/svg" xmlns:xlink="http://www.w3.org/1999/xlink" x="0px" y="0px"
	 width="512px" height="512px" viewBox="0 0 512 512" enable-background="new 0 0 512 512" xml:space="preserve">
<path fill="#ffa3b9" d="M238.25,22.632c3.347-6.76,10.239-11.045,17.772-11.045s14.437,4.285,17.772,11.045l63.743,129.177
	c2.883,5.843,8.473,9.896,14.934,10.835l142.553,20.71c7.478,1.082,13.663,6.317,15.994,13.486
	c2.33,7.168,0.386,15.055-5.016,20.313L402.859,317.711c-4.672,4.551-6.803,11.111-5.71,17.54l24.345,141.989
	c1.259,7.444-1.779,14.955-7.898,19.396c-6.107,4.418-14.182,5.004-20.875,1.514l-127.509-67.046
	c-5.766-3.038-12.669-3.038-18.446,0l-127.508,67.034c-6.672,3.502-14.768,2.928-20.876-1.502
	c-6.108-4.429-9.157-11.951-7.887-19.396l24.344-141.989c1.104-6.429-1.039-12.989-5.71-17.54L5.986,217.153
	c-5.401-5.269-7.345-13.145-5.015-20.313c2.331-7.169,8.527-12.404,16.005-13.486l142.575-20.71
	c6.451-0.939,12.04-4.993,14.922-10.847L238.25,22.632z"/>
</svg>
