<?xml version="1.0" encoding="utf-8"?>
<!-- Generator: Adobe Illustrator 23.0.1, SVG Export Plug-In . SVG Version: 6.00 Build 0)  -->
<svg version="1.1" id="Layer_1" xmlns="http://www.w3.org/2000/svg" xmlns:xlink="http://www.w3.org/1999/xlink" x="0px" y="0px"
	 viewBox="0 0 455 455" style="enable-background:new 0 0 455 455;" xml:space="preserve">
<style type="text/css">
	.st0{fill:none;stroke:#f5f5f5;stroke-width:20;stroke-miterlimit:10;}
</style>
<ellipse class="st0" cx="228" cy="228.6" rx="204" ry="203.7"/>
<path d="M376,237.8v-19.5h-38.5c-2-23-11.2-44-25.2-60.7l27.3-27.3l-13.8-13.8l-27.3,27.3c-16.8-14-37.7-23.2-60.7-25.2V80h-19.5
	v38.5c-23,2-44,11.2-60.7,25.2l-27.3-27.3l-13.8,13.8l27.3,27.3c-14,16.8-23.2,37.7-25.2,60.7H80v19.5h38.5c2,23,11.2,44,25.2,60.7
	l-27.3,27.3l13.8,13.8l27.3-27.3c16.8,14,37.7,23.2,60.7,25.2V376h19.5v-38.5c23-2,44-11.2,60.7-25.2l27.3,27.3l13.8-13.8
	l-27.3-27.3c14-16.8,23.2-37.7,25.2-60.7L376,237.8L376,237.8z M137.6,228c0-46.6,35.4-85,80.7-89.9v179.8
	C173,313,137.6,274.6,137.6,228z" fill="#f5f5f5"/>
</svg>
