<?xml version="1.0" encoding="utf-8"?>
<!-- Generator: Adobe Illustrator 16.0.0, SVG Export Plug-In . SVG Version: 6.00 Build 0)  -->
<!DOCTYPE svg PUBLIC "-//W3C//DTD SVG 1.1//EN" "http://www.w3.org/Graphics/SVG/1.1/DTD/svg11.dtd">
<svg version="1.1" id="Layer_1" xmlns="http://www.w3.org/2000/svg" xmlns:xlink="http://www.w3.org/1999/xlink" x="0px" y="0px"
	 width="1080px" height="1080px" viewBox="0 0 1080 1080" enable-background="new 0 0 1080 1080" xml:space="preserve">
<ellipse fill="none" stroke="#F5F5F5" stroke-width="45" stroke-miterlimit="10" cx="540" cy="540" rx="484.22" ry="483.508"/>
<path fill="#F5F5F5" d="M891.297,563.262v-46.285h-91.385c-4.747-54.594-26.584-104.44-59.815-144.08l64.801-64.8l-32.757-32.756
	l-64.8,64.8c-39.877-33.23-89.485-55.068-144.079-59.815v-91.622h-46.285v91.385c-54.594,4.747-104.44,26.585-144.079,59.815
	l-64.801-64.8l-32.756,32.756l64.8,64.8c-33.23,39.877-55.068,89.486-59.815,144.08h-91.622v46.285h91.385
	c4.747,54.594,26.585,104.439,59.815,144.079l-64.8,64.8l32.756,32.756l64.8-64.8c39.877,33.231,89.486,55.068,144.08,59.815v91.622
	h46.285v-91.385c54.594-4.747,104.439-26.584,144.079-59.815l64.8,64.801l32.756-32.757l-64.8-64.8
	c33.231-39.877,55.068-89.485,59.815-144.079H891.297L891.297,563.262z M325.425,540c0-110.61,84.026-201.758,191.552-213.389
	V753.39C409.451,741.759,325.425,650.611,325.425,540z"/>
<path fill="beige" d="M754.5,540c0-118.465-96.035-214.5-214.5-214.5c-7.779,0-15.458,0.425-23.023,1.232v426.535
	c7.565,0.808,15.244,1.232,23.023,1.232C658.465,754.5,754.5,658.465,754.5,540z"/>
</svg>
