<?xml version="1.0" encoding="utf-8"?>
<!-- Generator: Adobe Illustrator 16.0.0, SVG Export Plug-In . SVG Version: 6.00 Build 0)  -->
<!DOCTYPE svg PUBLIC "-//W3C//DTD SVG 1.1//EN" "http://www.w3.org/Graphics/SVG/1.1/DTD/svg11.dtd">
<svg version="1.1" id="Layer_1" xmlns="http://www.w3.org/2000/svg" xmlns:xlink="http://www.w3.org/1999/xlink" x="0px" y="0px" viewBox="0 0 1080 1080" enable-background="new 0 0 1080 1080" xml:space="preserve">
<path fill="#F5F5F5" d="M1080,575.604v-71.209H939.545c-7.415-83.91-40.764-160.474-91.978-221.611l99.448-99.445l-50.353-50.352
	l-99.447,99.445c-61.138-51.213-137.701-84.561-221.611-91.978V0h-71.209v140.455c-83.91,7.415-160.474,40.765-221.611,91.978
	l-99.448-99.445l-50.352,50.352l99.448,99.445c-51.211,61.135-84.561,137.701-91.978,221.611H0v71.209h140.455
	c7.415,83.91,40.765,160.474,91.978,221.611l-99.448,99.445l50.352,50.352l99.448-99.445
	c61.138,51.214,137.701,84.561,221.611,91.979V1080h71.209V939.546c83.91-7.416,160.474-40.766,221.611-91.979l99.448,99.445
	l50.352-50.352l-99.448-99.445c51.211-61.136,84.561-137.701,91.979-221.611H1080L1080,575.604z"/>
</svg>
