<?xml version="1.0" encoding="utf-8"?>
<!-- Generator: Adobe Illustrator 16.0.0, SVG Export Plug-In . SVG Version: 6.00 Build 0)  -->
<!DOCTYPE svg PUBLIC "-//W3C//DTD SVG 1.1//EN" "http://www.w3.org/Graphics/SVG/1.1/DTD/svg11.dtd">
<svg version="1.1" id="Layer_1" xmlns="http://www.w3.org/2000/svg" xmlns:xlink="http://www.w3.org/1999/xlink" x="0px" y="0px"
	 width="350px" height="350px" viewBox="0 0 350 350" enable-background="new 0 0 350 350" xml:space="preserve" fill='#f5f5f5'>
<g>
	<path fill-rule="evenodd" clip-rule="evenodd" d="M347.5,174.892c0.094,95.024-77.299,172.516-172.392,172.618
		C80.105,347.611,2.579,270.172,2.5,175.104C2.422,80.064,79.8,2.59,174.896,2.49C269.915,2.392,347.406,79.792,347.5,174.892z
		 M175.112,16.298C87.725,16.23,16.418,87.38,16.295,174.764C16.174,262.156,87.247,333.496,174.642,333.7
		c87.583,0.204,159.073-71.129,159.062-158.717C333.693,87.577,262.523,16.367,175.112,16.298z"/>
	<path fill-rule="evenodd" clip-rule="evenodd" d="M122.172,102.347c-5.58-1.501-10.193-2.682-14.77-3.989
		c-4.824-1.381-6.937-4.595-5.913-8.755c0.972-3.944,4.672-5.784,9.493-4.522c9.753,2.551,19.494,5.148,29.216,7.82
		c5.877,1.617,7.566,4.473,6.053,10.257c-2.552,9.751-5.184,19.482-7.861,29.2c-1.398,5.079-4.386,7.213-8.437,6.264
		c-4.316-1.012-6.05-4.508-4.755-9.707c1.07-4.303,2.204-8.589,3.595-13.996c-1.942,1.547-3.081,2.322-4.07,3.26
		c-23.163,21.935-31.288,48.602-22.021,79.038c9.225,30.299,30.96,47.566,62.088,52.97c2.916,0.505,5.938,0.393,8.91,0.59
		c5.338,0.354,8.39,3.107,8.152,7.331c-0.231,4.079-3.255,6.381-8.401,6.395c-41.991,0.114-80.618-32.834-86.78-74.377
		c-5.103-34.412,5.982-62.835,32.552-85.249C119.97,104.246,120.706,103.604,122.172,102.347z"/>
	<path fill-rule="evenodd" clip-rule="evenodd" d="M227.886,246.911c5.585,1.474,10.242,2.61,14.839,3.945
		c4.774,1.386,6.874,4.772,5.721,8.862c-1.038,3.688-4.681,5.563-9.209,4.401c-10.086-2.584-20.152-5.251-30.186-8.032
		c-5.102-1.416-6.739-4.498-5.348-9.821c2.591-9.912,5.254-19.808,7.983-29.683c1.358-4.921,4.488-6.944,8.678-5.885
		c4.006,1.012,5.692,4.517,4.472,9.45c-1.063,4.3-2.203,8.581-3.618,14.063c2.128-1.657,3.434-2.501,4.534-3.556
		c22.458-21.454,30.528-47.521,22.042-77.298c-8.558-30.025-29.439-47.812-60.089-53.902c-3.545-0.705-7.218-0.852-10.845-1.051
		c-5.667-0.311-8.908-2.936-8.715-7.299c0.188-4.253,3.26-6.52,8.813-6.504c42.024,0.12,80.43,33.207,86.413,74.814
		c4.945,34.399-6.06,62.845-32.837,85.106C229.825,245.112,229.163,245.755,227.886,246.911z"/>
</g>
</svg>
