<svg height="512pt" viewBox="0 0 512.00213 512" width="512pt" xmlns="http://www.w3.org/2000/svg"><path d="m373.273438 337.066406c-10.640626 13.414063-22.785157 25.566406-36.207032 36.207032l130.191406 130.195312 36.207032-36.207031zm0 0" fill="#668726"/><path d="m452.265625 230.402344c0 122.53125-99.332031 221.867187-221.867187 221.867187-122.53125 0-221.863282-99.335937-221.863282-221.867187 0-122.535156 99.332032-221.867188 221.863282-221.867188 122.535156 0 221.867187 99.332032 221.867187 221.867188zm0 0" fill="#fff"/><g fill="#668726"><path d="m230.398438 460.800781c-127.042969 0-230.398438-103.355469-230.398438-230.398437 0-127.046875 103.355469-230.402344 230.398438-230.402344 127.046874 0 230.402343 103.355469 230.402343 230.402344 0 127.042968-103.355469 230.398437-230.402343 230.398437zm0-443.734375c-117.628907 0-213.332032 95.703125-213.332032 213.335938 0 117.628906 95.703125 213.332031 213.332032 213.332031 117.632812 0 213.335937-95.703125 213.335937-213.332031 0-117.632813-95.703125-213.335938-213.335937-213.335938zm0 0"/><path d="m467.257812 512c-2.183593 0-4.367187-.835938-6.03125-2.5l-99.164062-99.164062c-1.726562-1.726563-2.628906-4.097657-2.484375-6.527344.144531-2.433594 1.3125-4.6875 3.214844-6.195313 12.886719-10.214843 24.601562-21.933593 34.816406-34.816406 1.511719-1.914063 3.765625-3.082031 6.195313-3.21875 2.390624-.171875 4.804687.769531 6.519531 2.492187l99.175781 99.15625c3.335938 3.335938 3.335938 8.730469 0 12.066407l-36.207031 36.207031c-1.664063 1.664062-3.847657 2.5-6.035157 2.5zm-86.5-107.101562 86.5 86.503906 24.132813-24.140625-86.492187-86.503907c-7.441407 8.628907-15.515626 16.699219-24.140626 24.140626zm0 0"/><path d="m315.734375 238.933594h-170.667969c-4.710937 0-8.53125-3.820313-8.53125-8.53125 0-4.710938 3.820313-8.535156 8.53125-8.535156h170.667969c4.710937 0 8.53125 3.824218 8.53125 8.535156 0 4.710937-3.820313 8.53125-8.53125 8.53125zm0 0"/></g></svg>