<?xml version="1.0" encoding="utf-8"?>
<!-- Generator: Adobe Illustrator 23.0.1, SVG Export Plug-In . SVG Version: 6.00 Build 0)  -->
<svg version="1.1" id="Layer_1" xmlns="http://www.w3.org/2000/svg" xmlns:xlink="http://www.w3.org/1999/xlink" x="0px" y="0px"
	 viewBox="0 0 1231 1280" style="enable-background:new 0 0 1231 1280;" xml:space="preserve">
<style type="text/css">
	.st0{fill:none;}
	.st1{font-family:'MyriadPro-Regular';}
	.st2{font-size:700px;}
</style>
<g transform="translate(0.000000,1280.000000) scale(0.100000,-0.100000)" fill='#ffbfcf'>
	<path d="M4080,12693c-1781-79-3321-1297-3815-3018C-15,8702,75,7646,515,6732c217-449,493-834,851-1182
		c668-651,1496-1043,2444-1157c208-25,707-25,915,1c683,82,1292,304,1839,668l119,80l89-89c49-48,94-96,99-105c7-14-6-32-71-95
		c-62-59-80-82-78-100c2-14,811-918,2115-2361C9998,1107,10960,44,10974,31l26-25l82,40c113,54,291,173,428,284
		c239,195,554,536,701,760c74,112,91,147,82,164c-4,7-280,301-613,652c-333,352-1293,1366-2134,2254C7967,5829,7908,5890,7892,5890
		c-5,0-59-48-120-106c-62-58-118-104-126-102c-15,3-176,173-176,185c0,5,34,51,76,103c92,116,259,366,345,515
		c389,679,584,1528,529,2310c-41,584-181,1098-439,1610c-630,1247-1819,2083-3211,2259c-124,16-493,37-580,34
		C4165,12697,4116,12695,4080,12693z M4485,12290c403-25,757-101,1115-237c1066-407,1891-1271,2244-2352c215-658,244-1370,82-2051
		c-105-443-309-896-572-1271c-246-350-580-686-917-922c-465-326-1001-548-1537-636c-254-42-310-46-640-45c-339,0-423,7-685,55
		C2238,5078,1123,6051,695,7345c-230,696-254,1433-70,2140c165,634,485,1198,950,1674c435,445,923,751,1507,946
		C3541,12257,4013,12319,4485,12290z"/>
	<path d="M4061,12135c15-8,94-37,175-64c176-59,278-103,355-153c76-50,3029-3016,3063-3078c61-108,102-205,151-355
		c29-88,62-180,72-205l20-45l7,125c11,209-17,557-65,795c-195,976-765,1833-1584,2384c-151,101-243,155-410,239
		c-519,259-1007,372-1605,372C4056,12149,4038,12148,4061,12135z" fill='#ffbfcf'/>
</g>
<rect x="216.9" y="129.9" class="st0" width="762.1" height="546.2" fill='#ffbfcf'/>
<text transform="matrix(1 0 0 1 216.9296 626.9424)" class="st1 st2" fill='#ffbfcf'>+</text>
</svg>
